<svg width="35" height="35" viewBox="0 0 35 35" fill="none" xmlns="http://www.w3.org/2000/svg">
<rect width="35" height="35" rx="8" fill="#F82A8A" fill-opacity="0.07"/>
<path d="M23.8645 12.4264C23.3092 12.4051 22.7984 12.5823 22.3999 12.8885V9.52686H20.1999V13.2152C20.1999 16.2706 17.6144 18.7476 14.4249 18.7476H12.2535C12.0566 18.7476 11.8649 18.6865 11.7073 18.5732L11.4818 18.4111C11.1194 18.1506 10.6122 18.1853 10.2919 18.4923C10.1209 18.6556 10.0249 18.8775 10.0249 19.1088V25.3338H12.2249V22.0685C12.2249 21.5471 12.9306 21.3425 13.2325 21.7763C14.3209 23.3405 16.1536 24.2799 18.1158 24.2799C22.4561 24.2799 25.9749 20.909 25.9749 16.751V15.8495C25.9749 13.7419 25.0596 12.4719 23.8645 12.4261L23.8645 12.4264ZM16.625 19.0111H17.175V19.538H16.625V19.0111ZM14.975 21.1187H14.425V20.5918H14.975V21.1187ZM16.9 23.2263C16.4451 23.2263 16.075 22.8717 16.075 22.436C16.075 22.0002 16.4451 21.6456 16.9 21.6456C17.3548 21.6456 17.725 22.0002 17.725 22.436C17.725 22.8717 17.3548 23.2263 16.9 23.2263ZM19.375 22.6994H18.825V22.1725H19.375V22.6994ZM19.1 20.8553C18.6451 20.8553 18.275 20.5007 18.275 20.0649C18.275 19.6292 18.6451 19.2746 19.1 19.2746C19.5548 19.2746 19.925 19.6292 19.925 20.0649C19.925 20.5007 19.5548 20.8553 19.1 20.8553ZM21.85 21.6456C21.3951 21.6456 21.025 21.291 21.025 20.8553C21.025 20.4195 21.3951 20.0649 21.85 20.0649C22.3048 20.0649 22.675 20.4195 22.675 20.8553C22.675 21.291 22.3048 21.6456 21.85 21.6456ZM24.325 19.8015H23.775V19.2746H24.325V19.8015ZM25.15 18.7477H22.3529C22.2394 19.0543 21.9336 19.2746 21.575 19.2746C21.2164 19.2746 20.9105 19.0543 20.797 18.7477H18V18.2208H21.025C21.1771 18.2208 21.3 18.3389 21.3 18.4842C21.3 18.6294 21.4232 18.7477 21.575 18.7477C21.7267 18.7477 21.85 18.6294 21.85 18.4842C21.85 18.3389 21.9728 18.2208 22.125 18.2208H25.15V18.7477Z" fill="url(#paint0_linear_533_1429)"/>
<defs>
<linearGradient id="paint0_linear_533_1429" x1="17.9999" y1="9.52686" x2="17.9999" y2="25.3338" gradientUnits="userSpaceOnUse">
<stop stop-color="#F82A8A"/>
<stop offset="1" stop-color="#FE852E"/>
</linearGradient>
</defs>
</svg>
