<svg width="35" height="35" viewBox="0 0 35 35" fill="none" xmlns="http://www.w3.org/2000/svg">
<rect width="35" height="35" rx="8" fill="#F82A8A" fill-opacity="0.07"/>
<path d="M12 11.0001H14.6154C14.7004 11.0001 14.7693 10.9311 14.7693 10.8462C14.7693 10.7613 14.7004 10.6924 14.6154 10.6924H12C11.915 10.6924 11.8462 10.7613 11.8462 10.8462C11.8462 10.9311 11.915 11.0001 12 11.0001Z" fill="url(#paint0_linear_533_1437)"/>
<path d="M10.462 11.9229H14.6156C14.7006 11.9229 14.7694 11.854 14.7694 11.7691C14.7694 11.6842 14.7006 11.6152 14.6156 11.6152H10.462C10.3769 11.6152 10.3081 11.6842 10.3081 11.7691C10.3081 11.854 10.3769 11.9229 10.462 11.9229Z" fill="url(#paint1_linear_533_1437)"/>
<path d="M14.6154 12.5381H12C11.915 12.5381 11.8462 12.607 11.8462 12.6919C11.8462 12.7768 11.915 12.8458 12 12.8458H14.6154C14.7004 12.8458 14.7693 12.7768 14.7693 12.6919C14.7693 12.607 14.7004 12.5381 14.6154 12.5381Z" fill="url(#paint2_linear_533_1437)"/>
<path d="M11.5386 19.1534C11.5386 19.2382 11.6074 19.3072 11.6924 19.3072H14.3078C14.3928 19.3072 14.4616 19.2382 14.4616 19.1534C14.4616 19.0685 14.3928 18.9995 14.3078 18.9995H11.6924C11.6074 18.9995 11.5386 19.0685 11.5386 19.1534Z" fill="url(#paint3_linear_533_1437)"/>
<path d="M10.1538 20.231H14.3075C14.3925 20.231 14.4613 20.1621 14.4613 20.0772C14.4613 19.9923 14.3925 19.9233 14.3075 19.9233H10.1538C10.0688 19.9233 10 19.9923 10 20.0772C10 20.1621 10.0688 20.231 10.1538 20.231Z" fill="url(#paint4_linear_533_1437)"/>
<path d="M14.4616 20.9995C14.4616 20.9147 14.3928 20.8457 14.3078 20.8457H11.6924C11.6074 20.8457 11.5386 20.9147 11.5386 20.9995C11.5386 21.0844 11.6074 21.1534 11.6924 21.1534H14.3078C14.3928 21.1534 14.4616 21.0844 14.4616 20.9995Z" fill="url(#paint5_linear_533_1437)"/>
<path d="M17.0183 16.3785C17.0379 16.3825 17.0581 16.3844 17.0781 16.3844C17.2244 16.3844 17.351 16.28 17.3793 16.1362C17.4123 15.9697 17.3035 15.8076 17.1369 15.7748C17.1173 15.771 17.097 15.769 17.0771 15.769C16.9309 15.769 16.8043 15.8734 16.7759 16.0173C16.743 16.1837 16.8518 16.3457 17.0183 16.3785V16.3785Z" fill="url(#paint6_linear_533_1437)"/>
<path d="M18.3847 11.4614C18.4314 11.4614 18.475 11.4408 18.5044 11.4046C18.5578 11.3388 18.5478 11.2417 18.4819 11.188C18.447 11.1597 18.4103 11.1538 18.3856 11.1538C18.3389 11.1538 18.2952 11.1746 18.2658 11.2107C18.2124 11.2765 18.2224 11.3736 18.2882 11.427C18.3231 11.4555 18.3599 11.4614 18.3847 11.4614V11.4614Z" fill="url(#paint7_linear_533_1437)"/>
<path d="M18.0773 19.1643C18.0516 19.1577 18.0255 19.1543 17.9997 19.1543C17.8599 19.1543 17.7375 19.2491 17.7022 19.3849C17.6599 19.5488 17.7586 19.7172 17.9228 19.7596C17.9485 19.7664 17.9744 19.7697 18.0004 19.7697C18.1402 19.7697 18.2626 19.6749 18.2979 19.539C18.3405 19.375 18.2414 19.2069 18.0773 19.1643Z" fill="url(#paint8_linear_533_1437)"/>
<path d="M16.0001 14.5386C15.9602 14.5386 15.9224 14.5537 15.8938 14.5814C15.8327 14.6404 15.8308 14.7379 15.8894 14.799C15.9289 14.84 15.976 14.8461 16.0004 14.8461C16.0404 14.8461 16.0782 14.8309 16.107 14.8031C16.168 14.7445 16.1698 14.6468 16.1111 14.5857C16.0718 14.5446 16.0247 14.5386 16.0001 14.5386Z" fill="url(#paint9_linear_533_1437)"/>
<path d="M19.6238 12.641C19.6762 12.6836 19.7317 12.6925 19.7689 12.6925C19.8389 12.6925 19.9042 12.6614 19.9483 12.6073C20.0285 12.5086 20.0135 12.3628 19.9146 12.2825C19.8623 12.24 19.8067 12.231 19.7696 12.231C19.6995 12.231 19.6343 12.262 19.5902 12.3163C19.5098 12.415 19.5251 12.5606 19.6238 12.641Z" fill="url(#paint10_linear_533_1437)"/>
<path d="M17.4983 13.2391C17.5682 13.2958 17.6421 13.3078 17.6917 13.3078C17.7851 13.3078 17.8723 13.2663 17.931 13.194C17.9829 13.1302 18.0068 13.0501 17.9983 12.9685C17.9899 12.8867 17.9501 12.8131 17.8864 12.7613C17.8162 12.7043 17.7423 12.6924 17.6925 12.6924C17.5993 12.6924 17.512 12.7339 17.4534 12.806C17.3465 12.9376 17.3667 13.1319 17.4983 13.2391V13.2391Z" fill="url(#paint11_linear_533_1437)"/>
<path d="M19.7113 18.8383C19.7307 18.8432 19.7503 18.8458 19.7697 18.8458C19.8744 18.8458 19.9661 18.7748 19.9925 18.673C20.008 18.6133 19.9992 18.5513 19.9682 18.4981C19.9369 18.445 19.8869 18.4072 19.8271 18.3918C19.808 18.3869 19.7885 18.3843 19.769 18.3843C19.6642 18.3843 19.5724 18.4554 19.5461 18.5572C19.5305 18.6168 19.5393 18.6789 19.5705 18.7319C19.6016 18.7851 19.6517 18.8227 19.7113 18.8383H19.7113Z" fill="url(#paint12_linear_533_1437)"/>
<path d="M19.9172 15.372C19.8257 15.4602 19.8228 15.6068 19.9111 15.6985C19.9549 15.7439 20.014 15.769 20.0773 15.769C20.1372 15.769 20.1942 15.7461 20.2375 15.7045C20.329 15.6163 20.3319 15.47 20.2437 15.3784C20.1997 15.3328 20.1407 15.3076 20.0773 15.3076C20.0173 15.3076 19.9604 15.3304 19.9172 15.372V15.372Z" fill="url(#paint13_linear_533_1437)"/>
<path d="M19.6538 20.2255C19.6668 20.2289 19.6799 20.2305 19.6928 20.2305C19.7624 20.2305 19.8237 20.1831 19.8413 20.1154C19.8551 20.0617 19.8369 20.0194 19.8249 19.9988C19.8128 19.9783 19.7847 19.9418 19.731 19.9279C19.7181 19.9245 19.705 19.9229 19.6921 19.9229C19.6222 19.9229 19.5612 19.9702 19.5435 20.0381C19.5223 20.1201 19.5718 20.2042 19.6538 20.2255H19.6538Z" fill="url(#paint14_linear_533_1437)"/>
<path d="M15.0767 27C15.0805 27 15.0845 26.9999 15.0884 26.9996L17.1128 26.8457C17.154 26.8426 17.1923 26.8229 17.2188 26.7913C17.2455 26.7596 17.2583 26.7184 17.2541 26.6773C17.0791 24.9041 17.8741 22.9566 20.0445 22.6021C20.6966 22.4958 21.2337 22.2459 21.6407 21.8595C22.6497 20.9021 22.5202 19.4572 22.5142 19.3962C22.509 19.3432 22.4731 19.2951 22.4254 19.2716C22.298 19.209 21.7113 18.8579 21.5148 18.688C21.7289 18.6235 22.2707 18.4605 22.3639 18.4321C22.482 18.3962 22.7277 18.3218 22.7539 18.0536C22.7697 17.8947 22.7819 17.7349 22.7939 17.5752L22.8021 17.4657C22.8053 17.4208 22.8079 17.3961 22.8157 17.3814C22.9197 17.3153 23.4962 17.0109 23.889 16.8072C24.108 16.6971 24.2428 16.5399 24.2897 16.3401C24.3793 15.9594 24.0974 15.577 24.0848 15.5602L21.8397 12.5945C21.9525 11.7749 21.8897 10.839 21.6733 10.1355C21.3142 8.96948 20.2907 8.03733 19.4529 7.55382C19.1257 7.36508 18.7477 7.23074 18.297 7.14324C17.5903 7.00601 16.8154 7.00917 16.0991 7.01233L15.7759 7.01329C15.5804 7.01329 15.3252 7.01178 15.084 7.0001C15.0418 6.99859 15.0009 7.01343 14.9705 7.04241C14.9402 7.07153 14.9229 7.11178 14.9229 7.15381V15.5058C15.0745 15.3795 15.2621 15.3077 15.4612 15.3077C15.6935 15.3077 15.9101 15.3999 16.0705 15.5669C16.2275 15.7297 16.3115 15.9438 16.3073 16.1698C16.3029 16.3956 16.211 16.6063 16.0481 16.7632C15.8896 16.9159 15.6811 17 15.4612 17C15.2609 17 15.0745 16.9278 14.9229 16.8012V26.846C14.9229 26.8889 14.9407 26.9297 14.9722 26.9588C15.0007 26.9853 15.0381 26.9999 15.0767 26.9999L15.0767 27ZM18.5956 19.6161C18.5236 19.8933 18.2739 20.0771 18.0003 20.0771C17.9492 20.0771 17.8973 20.0708 17.8453 20.0573C17.5165 19.972 17.3192 19.6362 17.4043 19.3072C17.4763 19.0303 17.726 18.8464 17.9996 18.8464C18.0507 18.8464 18.1026 18.8528 18.1546 18.8663C18.4834 18.9516 18.6808 19.2874 18.5956 19.6161V19.6161ZM20.4503 15.9267C20.3457 16.0272 20.2113 16.0772 20.0768 16.0772C19.9356 16.0772 19.7947 16.022 19.6889 15.9124C19.4826 15.6979 19.4892 15.3572 19.7033 15.1508C19.8077 15.0503 19.9423 15.0004 20.0768 15.0004C20.218 15.0004 20.3591 15.0557 20.4647 15.1654C20.671 15.3795 20.6644 15.7203 20.4503 15.9266V15.9267ZM19.3512 12.1225C19.4577 11.9914 19.6129 11.9234 19.7694 11.9234C19.8889 11.9234 20.0089 11.9628 20.1088 12.044C20.3393 12.2315 20.3746 12.5707 20.187 12.8015C20.0805 12.9324 19.9254 13.0003 19.7688 13.0003C19.6495 13.0003 19.5295 12.9609 19.4295 12.8798C19.1989 12.6922 19.1635 12.3534 19.3512 12.1225V12.1225ZM19.2481 18.4807C19.311 18.2381 19.5295 18.0772 19.7688 18.0772C19.8136 18.0772 19.8589 18.0829 19.9044 18.0945C20.1923 18.1693 20.365 18.4632 20.2903 18.7508C20.2272 18.9933 20.009 19.1541 19.7695 19.1541C19.7247 19.1541 19.6793 19.1485 19.6338 19.1367C19.346 19.0621 19.1734 18.7683 19.2481 18.4807L19.2481 18.4807ZM19.2455 19.9614C19.2995 19.7536 19.4867 19.6157 19.6919 19.6157C19.7302 19.6157 19.7692 19.6205 19.808 19.6305C20.0547 19.6945 20.2028 19.9464 20.1387 20.1931C20.0849 20.4008 19.8975 20.5387 19.6926 20.5387C19.6541 20.5387 19.6152 20.5339 19.5762 20.5238C19.3295 20.4598 19.1816 20.208 19.2454 19.9614L19.2455 19.9614ZM18.0264 11.0169C18.1176 10.9046 18.2507 10.8463 18.385 10.8463C18.4872 10.8463 18.5901 10.8801 18.6754 10.9495C18.8731 11.1102 18.9034 11.401 18.7427 11.5988C18.6515 11.7112 18.5184 11.7694 18.3842 11.7694C18.2819 11.7694 18.179 11.7356 18.0936 11.666C17.8958 11.5054 17.8655 11.2149 18.0264 11.0169L18.0264 11.0169ZM17.2144 12.6121C17.3361 12.4624 17.5135 12.3848 17.6923 12.3848C17.8287 12.3848 17.9659 12.4298 18.0801 12.5224C18.344 12.7367 18.3841 13.1243 18.1696 13.3879C18.0479 13.5378 17.8705 13.6155 17.6915 13.6155C17.5552 13.6155 17.418 13.5705 17.304 13.4779C17.0404 13.2635 17.0001 12.876 17.2144 12.6121L17.2144 12.6121ZM17.0725 7.32862C17.0622 7.40348 17.0007 7.46186 16.923 7.46186C16.8427 7.46186 16.7791 7.39991 16.7719 7.32175C16.8746 7.32313 16.9747 7.32546 17.0725 7.32862V7.32862ZM16.4731 15.9584C16.5308 15.665 16.7882 15.4618 17.0761 15.4618C17.1154 15.4618 17.1555 15.4655 17.1955 15.4735C17.5288 15.5393 17.7461 15.8626 17.6803 16.1962C17.6228 16.4894 17.3654 16.6927 17.0772 16.6927C17.0378 16.6927 16.9978 16.689 16.9578 16.681C16.6246 16.6154 16.4074 16.2916 16.4731 15.9584ZM15.9999 15.1543C15.8787 15.1543 15.758 15.1069 15.6672 15.0128C15.4904 14.8294 15.496 14.537 15.6797 14.3602C15.7691 14.274 15.8845 14.2313 15.9996 14.2313C16.1209 14.2313 16.2418 14.2787 16.3324 14.3728C16.5091 14.5565 16.5036 14.8485 16.3199 15.0253C16.2304 15.1114 16.115 15.1543 15.9999 15.1543V15.1543Z" fill="url(#paint15_linear_533_1437)"/>
<path d="M15.6218 16.3197C15.6661 16.277 15.6911 16.2196 15.6924 16.158C15.6935 16.0965 15.6705 16.0382 15.628 15.9939C15.5837 15.948 15.5247 15.9229 15.4615 15.9229C15.4016 15.9229 15.3447 15.9458 15.3014 15.9874C15.21 16.0756 15.2071 16.222 15.2954 16.3138C15.3392 16.3592 15.3982 16.3844 15.4615 16.3844C15.5214 16.3844 15.5784 16.3614 15.6218 16.3197L15.6218 16.3197Z" fill="url(#paint16_linear_533_1437)"/>
<defs>
<linearGradient id="paint0_linear_533_1437" x1="13.3077" y1="10.6924" x2="13.3077" y2="11.0001" gradientUnits="userSpaceOnUse">
<stop stop-color="#FE862D"/>
<stop offset="1" stop-color="#F83382"/>
</linearGradient>
<linearGradient id="paint1_linear_533_1437" x1="12.5388" y1="11.6152" x2="12.5388" y2="11.9229" gradientUnits="userSpaceOnUse">
<stop stop-color="#FE862D"/>
<stop offset="1" stop-color="#F83382"/>
</linearGradient>
<linearGradient id="paint2_linear_533_1437" x1="13.3077" y1="12.5381" x2="13.3077" y2="12.8458" gradientUnits="userSpaceOnUse">
<stop stop-color="#FE862D"/>
<stop offset="1" stop-color="#F83382"/>
</linearGradient>
<linearGradient id="paint3_linear_533_1437" x1="13.0001" y1="18.9995" x2="13.0001" y2="19.3072" gradientUnits="userSpaceOnUse">
<stop stop-color="#FE862D"/>
<stop offset="1" stop-color="#F83382"/>
</linearGradient>
<linearGradient id="paint4_linear_533_1437" x1="12.2307" y1="19.9233" x2="12.2307" y2="20.231" gradientUnits="userSpaceOnUse">
<stop stop-color="#FE862D"/>
<stop offset="1" stop-color="#F83382"/>
</linearGradient>
<linearGradient id="paint5_linear_533_1437" x1="13.0001" y1="20.8457" x2="13.0001" y2="21.1534" gradientUnits="userSpaceOnUse">
<stop stop-color="#FE862D"/>
<stop offset="1" stop-color="#F83382"/>
</linearGradient>
<linearGradient id="paint6_linear_533_1437" x1="17.0776" y1="15.769" x2="17.0776" y2="16.3844" gradientUnits="userSpaceOnUse">
<stop stop-color="#FE862D"/>
<stop offset="1" stop-color="#F83382"/>
</linearGradient>
<linearGradient id="paint7_linear_533_1437" x1="18.3851" y1="11.1538" x2="18.3851" y2="11.4614" gradientUnits="userSpaceOnUse">
<stop stop-color="#FE862D"/>
<stop offset="1" stop-color="#F83382"/>
</linearGradient>
<linearGradient id="paint8_linear_533_1437" x1="18.0001" y1="19.1543" x2="18.0001" y2="19.7697" gradientUnits="userSpaceOnUse">
<stop stop-color="#FE862D"/>
<stop offset="1" stop-color="#F83382"/>
</linearGradient>
<linearGradient id="paint9_linear_533_1437" x1="16.0003" y1="14.5386" x2="16.0003" y2="14.8461" gradientUnits="userSpaceOnUse">
<stop stop-color="#FE862D"/>
<stop offset="1" stop-color="#F83382"/>
</linearGradient>
<linearGradient id="paint10_linear_533_1437" x1="19.7692" y1="12.231" x2="19.7692" y2="12.6925" gradientUnits="userSpaceOnUse">
<stop stop-color="#FE862D"/>
<stop offset="1" stop-color="#F83382"/>
</linearGradient>
<linearGradient id="paint11_linear_533_1437" x1="17.6924" y1="12.6924" x2="17.6924" y2="13.3078" gradientUnits="userSpaceOnUse">
<stop stop-color="#FE862D"/>
<stop offset="1" stop-color="#F83382"/>
</linearGradient>
<linearGradient id="paint12_linear_533_1437" x1="19.7693" y1="18.3843" x2="19.7693" y2="18.8458" gradientUnits="userSpaceOnUse">
<stop stop-color="#FE862D"/>
<stop offset="1" stop-color="#F83382"/>
</linearGradient>
<linearGradient id="paint13_linear_533_1437" x1="20.0773" y1="15.3076" x2="20.0773" y2="15.769" gradientUnits="userSpaceOnUse">
<stop stop-color="#FE862D"/>
<stop offset="1" stop-color="#F83382"/>
</linearGradient>
<linearGradient id="paint14_linear_533_1437" x1="19.6924" y1="19.9229" x2="19.6924" y2="20.2305" gradientUnits="userSpaceOnUse">
<stop stop-color="#FE862D"/>
<stop offset="1" stop-color="#F83382"/>
</linearGradient>
<linearGradient id="paint15_linear_533_1437" x1="19.6151" y1="7" x2="19.6151" y2="27" gradientUnits="userSpaceOnUse">
<stop stop-color="#FE862D"/>
<stop offset="1" stop-color="#F83382"/>
</linearGradient>
<linearGradient id="paint16_linear_533_1437" x1="15.4617" y1="15.9229" x2="15.4617" y2="16.3844" gradientUnits="userSpaceOnUse">
<stop stop-color="#FE862D"/>
<stop offset="1" stop-color="#F83382"/>
</linearGradient>
</defs>
</svg>
