<svg width="35" height="35" viewBox="0 0 35 35" fill="none" xmlns="http://www.w3.org/2000/svg">
<rect width="35" height="35" rx="8" fill="#F82A8A" fill-opacity="0.07"/>
<g clip-path="url(#clip0_533_1430)">
<path d="M12.4027 18.8488C12.3314 18.8488 12.2736 18.7903 12.2736 18.718C12.2736 18.4821 12.2121 18.2505 12.0957 18.0479C11.8686 17.6534 11.4543 17.4055 11.0063 17.3889C10.5904 17.7164 10.3223 18.2255 10.3223 18.7984C10.3223 19.3381 10.5601 19.8209 10.9348 20.1487C10.8261 20.3736 10.7635 20.6248 10.7635 20.8917C10.7635 21.789 11.4542 22.5221 12.3285 22.5841C12.3355 23.4704 12.9923 24.1989 13.8419 24.3124C14.6508 24.2897 15.3025 23.6171 15.3025 22.7919C15.3025 22.305 15.0808 21.859 14.6943 21.5683C14.6371 21.5252 14.6252 21.4433 14.6676 21.3854C14.7101 21.3274 14.791 21.3154 14.8481 21.3583C15.2942 21.6938 15.5605 22.2298 15.5605 22.7919C15.5605 23.6283 14.9888 24.3304 14.2211 24.5224C14.525 25.2372 15.2277 25.7386 16.0477 25.7386C17.1461 25.7386 18.0367 24.8405 18.0367 23.7331L18.0435 20.377H17.5363C17.3955 20.377 17.2626 20.3173 17.1718 20.2133C17.0802 20.1083 17.0377 19.9657 17.0551 19.8219L17.0575 19.8059L17.3986 17.9481C16.7772 17.6158 16.3861 16.9785 16.3861 16.2712C16.3861 15.3074 17.1141 14.5102 18.0556 14.3817L18.0633 10.6078C18.0633 9.71981 17.3495 9 16.469 9C15.9505 9 15.4925 9.2515 15.2016 9.6383C15.448 9.7651 15.8063 10.0533 15.9572 10.6924C15.9738 10.7627 15.931 10.8332 15.8618 10.85C15.8372 10.856 15.8125 10.8544 15.7902 10.8466C15.7497 10.8326 15.717 10.7985 15.7063 10.7534C15.51 9.92157 14.91 9.80342 14.9036 9.80177C14.8822 9.79804 14.8641 9.78765 14.8481 9.77469C13.9836 9.83645 13.2772 10.4755 13.1083 11.3126C13.0626 11.3085 13.0163 11.3055 12.9694 11.3055C12.1277 11.3055 11.4451 11.9937 11.4451 12.8425C11.4451 13.0768 11.4976 13.2988 11.5907 13.4976C11.7348 13.4658 11.8822 13.4486 12.0312 13.4486C13.1658 13.4486 14.0888 14.3841 14.0888 15.5339C14.0888 15.6062 14.0311 15.6647 13.9598 15.6647C13.8885 15.6647 13.8308 15.6062 13.8308 15.5339C13.8308 14.5283 13.0235 13.7101 12.0312 13.7101C11.8583 13.7101 11.6882 13.7359 11.524 13.7847C10.8601 14.1169 10.4022 14.805 10.4022 15.603C10.4022 16.2146 10.6718 16.761 11.096 17.1334C11.6004 17.1787 12.0605 17.4679 12.3183 17.916C12.4579 18.1584 12.5316 18.4357 12.5316 18.7178C12.5316 18.7901 12.4739 18.8486 12.4026 18.8486L12.4027 18.8488ZM12.8981 20.9469C12.9203 21.0154 12.8835 21.0895 12.8158 21.1119C12.8024 21.1163 12.7888 21.1184 12.7754 21.1184C12.7212 21.1184 12.6707 21.0835 12.6529 21.0284C12.5217 20.6231 12.6807 20.1842 13.0396 19.961C13.2834 19.8093 13.5766 19.7828 13.8436 19.889C13.91 19.9152 13.9427 19.9911 13.9167 20.0583C13.8908 20.1254 13.816 20.1593 13.7495 20.1323C13.5586 20.0565 13.3489 20.0753 13.1746 20.1838C12.9179 20.3435 12.8043 20.6574 12.8981 20.9469L12.8981 20.9469ZM14.2927 23.3541C13.6715 23.3541 13.1663 22.842 13.1663 22.2127C13.1663 22.1404 13.2241 22.0819 13.2953 22.0819C13.3666 22.0819 13.4243 22.1404 13.4243 22.2127C13.4243 22.6978 13.8138 23.0926 14.2927 23.0926C14.364 23.0926 14.4217 23.1511 14.4217 23.2233C14.4217 23.2957 14.364 23.3541 14.2927 23.3541ZM14.4413 20.9138C14.4413 20.8308 14.5078 20.7632 14.5897 20.7632C14.6718 20.7632 14.7385 20.8308 14.7385 20.9138C14.7385 20.9971 14.4413 20.9971 14.4413 20.9138H14.4413ZM15.6729 17.6173C15.5909 17.6173 15.5242 17.5497 15.5242 17.4665C15.5242 17.3834 15.5909 17.3159 15.6729 17.3159C15.755 17.3159 15.8214 17.3834 15.8214 17.4665C15.8215 17.5497 15.755 17.6173 15.6729 17.6173ZM16.8449 23.9949C16.8449 23.9226 16.9027 23.8642 16.9739 23.8642C17.0452 23.8642 17.103 23.9226 17.103 23.9949C17.103 24.4962 16.7007 24.904 16.2063 24.904C16.1351 24.904 16.0773 24.8455 16.0773 24.7732C16.0773 24.701 16.1351 24.6425 16.2063 24.6425C16.5584 24.6425 16.8449 24.352 16.8449 23.9949ZM13.5365 12.2822C13.4543 12.2822 13.3877 12.2147 13.3877 12.1314C13.3877 12.0483 13.4543 11.9808 13.5365 11.9808C13.6185 11.9808 13.6851 12.0483 13.6851 12.1314C13.6849 12.2147 13.6185 12.2822 13.5365 12.2822ZM13.7678 12.6377C13.7248 12.58 13.7361 12.4981 13.793 12.4545C13.8498 12.4109 13.9308 12.4225 13.9737 12.4801C14.2443 12.8433 14.6567 13.0517 15.1051 13.0517C15.7644 13.0517 16.3312 12.5984 16.4831 11.9491C16.4996 11.8788 16.569 11.8355 16.6385 11.852C16.7079 11.8687 16.7507 11.9391 16.7342 12.0096C16.5545 12.7772 15.8846 13.3133 15.105 13.3133C14.5749 13.3133 14.0875 13.067 13.7677 12.6377L13.7678 12.6377ZM14.5369 16.2383C14.5369 16.3215 14.4703 16.389 14.3883 16.389C14.3062 16.389 14.2396 16.3215 14.2396 16.2383C14.2396 16.1552 14.3061 16.0878 14.3883 16.0878C14.4705 16.0878 14.5369 16.1552 14.5369 16.2383ZM13.6984 17.5976C14.0767 17.4111 14.5272 17.5119 14.7939 17.8427C14.9751 18.0673 15.0402 18.3582 14.9724 18.6407C14.958 18.7005 14.9053 18.7405 14.8472 18.7405C14.8371 18.7405 14.8268 18.7394 14.8166 18.7368C14.7474 18.7196 14.7048 18.649 14.7217 18.5788C14.7702 18.3767 14.7237 18.1688 14.5941 18.0081C14.4035 17.772 14.0816 17.7 13.811 17.8327C13.747 17.8641 13.6698 17.8373 13.6387 17.7723C13.6076 17.7073 13.6342 17.6291 13.6984 17.5976L13.6984 17.5976ZM12.1467 16.2516C11.912 15.9832 11.8175 15.6273 11.8876 15.2753C11.9016 15.2045 11.9692 15.1591 12.0396 15.1729C12.1094 15.1871 12.1547 15.2561 12.1406 15.327C12.0867 15.5979 12.1593 15.8717 12.3399 16.0781C12.6054 16.3818 13.0369 16.4599 13.3891 16.2689C13.4521 16.2348 13.5301 16.2589 13.5637 16.3224C13.5974 16.386 13.5738 16.4653 13.511 16.4994C13.3435 16.5903 13.1622 16.6345 12.9827 16.6345C12.6712 16.6344 12.3656 16.5018 12.1467 16.2516L12.1467 16.2516Z" fill="url(#paint0_linear_533_1430)"/>
<path d="M24.611 13.4486C24.7601 13.4486 24.9074 13.4658 25.0515 13.4976C25.1446 13.2988 25.1972 13.0768 25.1972 12.8425C25.1972 11.9937 24.5147 11.3055 23.6729 11.3055C23.6261 11.3055 23.5797 11.3085 23.534 11.3126C23.3651 10.4755 22.6588 9.83644 21.7942 9.77468C21.7781 9.78753 21.76 9.79792 21.7387 9.80177C21.7323 9.80341 21.1323 9.92157 20.936 10.7534C20.9253 10.7985 20.8927 10.8326 20.8521 10.8466C20.8298 10.8544 20.8051 10.856 20.7805 10.85C20.7112 10.8332 20.6685 10.7627 20.6851 10.6924C20.836 10.0533 21.1943 9.76513 21.4406 9.6383C21.1498 9.2515 20.6917 9 20.1734 9C19.2928 9 18.5791 9.71981 18.5791 10.6078L18.5868 14.3817C19.5283 14.5102 20.2563 15.3075 20.2563 16.2712C20.2563 16.9779 19.8643 17.6153 19.2413 17.9481L19.5848 19.8219C19.6021 19.9658 19.5596 20.1083 19.4681 20.2133C19.3773 20.3173 19.2445 20.377 19.1036 20.377H18.5989L18.6057 23.7331C18.6057 24.8405 19.4962 25.7386 20.5947 25.7386C21.4148 25.7386 22.1174 25.2372 22.4214 24.5225C21.6538 24.3304 21.0821 23.6284 21.0821 22.792C21.0821 22.2298 21.3484 21.6939 21.7944 21.3584C21.8515 21.3153 21.9325 21.3275 21.9749 21.3855C22.0174 21.4435 22.0054 21.5254 21.9482 21.5683C21.5617 21.8591 21.3401 22.3051 21.3401 22.792C21.3401 23.6173 21.9916 24.2899 22.8006 24.3125C23.6503 24.199 24.307 23.4705 24.314 22.5842C25.1883 22.522 25.8791 21.7889 25.8791 20.8918C25.8791 20.6248 25.8164 20.3737 25.7078 20.1488C26.0823 19.8208 26.3201 19.3381 26.3201 18.7984C26.3201 18.2255 26.052 17.7164 25.6361 17.3889C25.1882 17.4055 24.7738 17.6534 24.5467 18.0479C24.4303 18.2505 24.3688 18.4821 24.3688 18.718C24.3688 18.7902 24.3111 18.8487 24.2398 18.8487C24.1684 18.8487 24.1107 18.7902 24.1107 18.718C24.1107 18.4359 24.1845 18.1586 24.324 17.9161C24.5818 17.468 25.0419 17.1787 25.5463 17.1334C25.9704 16.7612 26.2401 16.2147 26.2401 15.6031C26.2401 14.805 25.7822 14.1171 25.1182 13.7848C24.9541 13.736 24.7839 13.7102 24.611 13.7102C23.6187 13.7102 22.8115 14.5283 22.8115 15.534C22.8115 15.6063 22.7538 15.6647 22.6824 15.6647C22.6111 15.6647 22.5534 15.6063 22.5534 15.534C22.5534 14.3841 23.4765 13.4488 24.611 13.4488L24.611 13.4486ZM20.4362 24.9037C19.9416 24.9037 19.5395 24.4958 19.5395 23.9946C19.5395 23.9223 19.5972 23.8638 19.6685 23.8638C19.7397 23.8638 19.7975 23.9223 19.7975 23.9946C19.7975 24.3516 20.084 24.6421 20.4362 24.6421C20.5074 24.6421 20.5652 24.7006 20.5652 24.7729C20.5652 24.8452 20.5074 24.9037 20.4362 24.9037ZM20.9695 17.6171C20.8875 17.6171 20.821 17.5495 20.821 17.4663C20.821 17.3832 20.8876 17.3157 20.9695 17.3157C21.0515 17.3157 21.1182 17.3832 21.1182 17.4663C21.1181 17.5495 21.0515 17.6171 20.9695 17.6171ZM21.904 20.9137C21.904 20.8306 21.9707 20.763 22.0527 20.763C22.1347 20.763 22.2012 20.8306 22.2012 20.9137C22.2012 20.9969 21.904 20.9969 21.904 20.9137H21.904ZM22.3498 23.3539C22.2785 23.3539 22.2208 23.2954 22.2208 23.2231C22.2208 23.1509 22.2785 23.0924 22.3498 23.0924C22.8286 23.0924 23.2181 22.6976 23.2181 22.2125C23.2181 22.1402 23.2758 22.0817 23.3471 22.0817C23.4183 22.0817 23.4761 22.1402 23.4761 22.2125C23.4761 22.8419 22.9708 23.3539 22.3498 23.3539ZM23.9896 21.0282C23.9717 21.0833 23.9212 21.1182 23.867 21.1182C23.8537 21.1182 23.84 21.1161 23.8267 21.1117C23.7591 21.0893 23.7221 21.0152 23.7443 20.9467C23.8381 20.657 23.7244 20.3433 23.4677 20.1837C23.2934 20.0752 23.0837 20.0565 22.8928 20.1322C22.8263 20.1592 22.7515 20.1253 22.7256 20.0582C22.6997 19.991 22.7323 19.9151 22.7987 19.8889C23.0657 19.7827 23.3589 19.8092 23.6028 19.9609C23.9617 20.184 24.1207 20.623 23.9896 21.0282L23.9896 21.0282ZM23.0788 16.3217C23.1125 16.2581 23.1905 16.2341 23.2535 16.2682C23.6057 16.4594 24.0371 16.3811 24.3026 16.0774C24.4832 15.871 24.5558 15.5973 24.5019 15.3263C24.4879 15.2556 24.533 15.1866 24.603 15.1722C24.6732 15.1584 24.7408 15.2037 24.755 15.2746C24.8251 15.6266 24.7306 15.9826 24.4958 16.2509C24.277 16.5012 23.9712 16.6337 23.6601 16.6337C23.4806 16.6337 23.2993 16.5897 23.1318 16.4986C23.0688 16.4646 23.0452 16.3853 23.0788 16.3217L23.0788 16.3217ZM22.9439 17.597C23.0081 17.6286 23.0348 17.7067 23.0036 17.7717C22.9725 17.8369 22.8952 17.8636 22.8313 17.8322C22.5607 17.6993 22.2388 17.7714 22.0482 18.0076C21.9186 18.1682 21.872 18.3762 21.9207 18.5783C21.9375 18.6484 21.895 18.7191 21.8257 18.7363C21.8155 18.7388 21.8052 18.74 21.7951 18.74C21.737 18.74 21.6842 18.7 21.6699 18.6402C21.6021 18.3577 21.6671 18.0668 21.8484 17.8421C22.1151 17.5114 22.5656 17.4106 22.9439 17.5971L22.9439 17.597ZM22.1054 16.2377C22.1054 16.1546 22.172 16.0872 22.254 16.0872C22.3362 16.0872 22.4027 16.1546 22.4027 16.2377C22.4027 16.321 22.3363 16.3885 22.254 16.3885C22.1719 16.3885 22.1054 16.3209 22.1054 16.2377ZM22.8746 12.6372C22.5548 13.0665 22.0674 13.3128 21.5374 13.3128C20.758 13.3128 20.088 12.7766 19.9082 12.009C19.8917 11.9387 19.9347 11.8683 20.0039 11.8515C20.0734 11.8349 20.1427 11.8783 20.1593 11.9486C20.3113 12.5977 20.878 13.0512 21.5374 13.0512C21.9857 13.0512 22.398 12.8429 22.6687 12.4796C22.7115 12.4221 22.7925 12.4105 22.8494 12.454C22.9062 12.4976 22.9175 12.5795 22.8745 12.6372L22.8746 12.6372ZM22.9574 12.131C22.9574 12.0479 23.024 11.9804 23.106 11.9804C23.1881 11.9804 23.2547 12.0479 23.2547 12.131C23.2547 12.2143 23.1881 12.2818 23.106 12.2818C23.0239 12.2816 22.9574 12.2141 22.9574 12.131Z" fill="url(#paint1_linear_533_1430)"/>
<path d="M19.3289 19.8542L18.9511 17.7963C19.5634 17.5499 19.9985 16.9609 19.9985 16.2716C19.9985 15.3613 19.2471 14.6235 18.3213 14.6235C17.3954 14.6235 16.644 15.3613 16.644 16.2716C16.644 16.9609 17.0765 17.5499 17.689 17.7963L17.3113 19.8542C17.2937 19.9986 17.3944 20.1159 17.5362 20.1159H19.1038C19.2456 20.1159 19.3464 19.9986 19.3289 19.8542H19.3289Z" fill="url(#paint2_linear_533_1430)"/>
</g>
<defs>
<linearGradient id="paint0_linear_533_1430" x1="14.1928" y1="9" x2="14.1928" y2="25.7386" gradientUnits="userSpaceOnUse">
<stop stop-color="#F82A8A"/>
<stop offset="1" stop-color="#FF9320"/>
</linearGradient>
<linearGradient id="paint1_linear_533_1430" x1="22.4496" y1="9" x2="22.4496" y2="25.7386" gradientUnits="userSpaceOnUse">
<stop stop-color="#F82A8A"/>
<stop offset="1" stop-color="#FF9320"/>
</linearGradient>
<linearGradient id="paint2_linear_533_1430" x1="18.3213" y1="14.6235" x2="18.3213" y2="20.1159" gradientUnits="userSpaceOnUse">
<stop stop-color="#F82A8A"/>
<stop offset="1" stop-color="#FF9320"/>
</linearGradient>
<clipPath id="clip0_533_1430">
<rect width="20.6429" height="17" fill="white" transform="translate(8 9)"/>
</clipPath>
</defs>
</svg>
