<svg width="35" height="35" viewBox="0 0 35 35" fill="none" xmlns="http://www.w3.org/2000/svg">
<rect width="35" height="35" rx="8" fill="#F82A8A" fill-opacity="0.07"/>
<path d="M14.5798 18.5815L15.9804 19.3511L16.7998 18.0998C16.8451 18.0304 16.9185 17.9843 17.0006 17.9736C17.0824 17.9632 17.1653 17.9884 17.2272 18.0435L17.9169 18.6602L18.2902 16.8103C18.3154 16.686 18.4197 16.5932 18.5463 16.5832C18.6711 16.5734 18.7903 16.648 18.835 16.7668L19.9049 19.6213L21.0075 18.6202C21.0599 18.5726 21.128 18.5463 21.1987 18.5463H24.2328L24.452 18.3269C25.1687 17.61 25.5635 16.6589 25.5635 15.6492C25.5635 14.634 25.1686 13.6815 24.4524 12.9677C23.7379 12.2508 22.7852 11.8558 21.7705 11.8558H21.7661C20.7569 11.8558 19.8068 12.2496 19.0907 12.9646C18.729 13.3261 18.4493 13.7471 18.2608 14.2055C17.6907 12.8282 16.3326 11.8553 14.7537 11.8535C13.7416 11.8535 12.7898 12.2491 12.0743 12.9668C11.3575 13.6815 10.9624 14.6334 10.9624 15.6471C10.9624 16.6607 11.3573 17.6125 12.0739 18.3269L12.2931 18.5462H14.443C14.4908 18.5462 14.5378 18.5583 14.5798 18.5815L14.5798 18.5815Z" fill="url(#paint0_linear_533_1431)"/>
<path d="M21.3083 19.1147L19.9769 20.3237C19.9239 20.3718 19.8554 20.3976 19.7856 20.3976C19.7635 20.3976 19.7408 20.395 19.7188 20.3897C19.6271 20.3675 19.5524 20.3014 19.5195 20.2132L18.6509 17.896L18.376 19.2592C18.3559 19.3592 18.2836 19.4406 18.187 19.4727C18.09 19.5043 17.9838 19.4828 17.9077 19.4148L17.0943 18.6875L16.3118 19.8825C16.2304 20.0069 16.0668 20.0472 15.937 19.9759L14.3698 19.1148H12.8613L17.3326 23.5876C17.581 23.836 17.9113 23.973 18.2629 23.973C18.6144 23.973 18.9447 23.836 19.1931 23.5876L23.6644 19.1148L21.3083 19.1147Z" fill="url(#paint1_linear_533_1431)"/>
<path d="M24.738 23.5115H24.6735V23.4433C24.6735 23.0112 24.3173 22.6587 23.8852 22.6587C23.4494 22.6587 23.0969 23.0112 23.0969 23.4433V23.5115H23.0287C22.5966 23.5115 22.2441 23.864 22.2441 24.2998C22.2441 24.7319 22.5966 25.0881 23.0287 25.0881H23.0969V25.1526C23.0969 25.5884 23.4494 25.9409 23.8852 25.9409C24.3173 25.9409 24.6735 25.5884 24.6735 25.1526V25.0881H24.738C25.1738 25.0881 25.5263 24.7319 25.5263 24.2998C25.5265 23.864 25.174 23.5115 24.738 23.5115Z" fill="url(#paint2_linear_533_1431)"/>
<path d="M11.7795 20.8282H11.715V20.76C11.715 20.3242 11.3625 19.9717 10.9267 19.9717C10.4909 19.9717 10.1384 20.3242 10.1384 20.76V20.8282H10.0739C9.63814 20.8282 9.28564 21.1807 9.28564 21.6128C9.28564 22.0486 9.63813 22.4011 10.0739 22.4011H10.1384V22.4693C10.1384 22.9014 10.4909 23.2538 10.9267 23.2538C11.3625 23.2538 11.715 22.9014 11.715 22.4693V22.4012H11.7795C12.2153 22.4012 12.5678 22.0487 12.5678 21.6129C12.5679 21.1808 12.2155 20.8282 11.7795 20.8282V20.8282Z" fill="url(#paint3_linear_533_1431)"/>
<path d="M19.1511 10.367H19.2193V10.4315C19.2193 10.8673 19.5718 11.2198 20.0039 11.2198C20.4397 11.2198 20.7922 10.8673 20.7922 10.4315V10.367H20.8604C21.2925 10.367 21.645 10.0145 21.645 9.57872C21.645 9.14292 21.2925 8.79042 20.8604 8.79042H20.7922L20.7923 8.72594C20.7923 8.28999 20.4398 7.9375 20.0039 7.9375C19.5718 7.9375 19.2193 8.28998 19.2193 8.7258V8.79028H19.1511C18.7153 8.79028 18.3628 9.14276 18.3628 9.57858C18.3628 10.0145 18.7153 10.367 19.1511 10.367H19.1511Z" fill="url(#paint4_linear_533_1431)"/>
<defs>
<linearGradient id="paint0_linear_533_1431" x1="18.263" y1="11.8535" x2="18.263" y2="19.6213" gradientUnits="userSpaceOnUse">
<stop stop-color="#F82A8A"/>
<stop offset="1" stop-color="#FF9320"/>
</linearGradient>
<linearGradient id="paint1_linear_533_1431" x1="18.2629" y1="17.896" x2="18.2629" y2="23.973" gradientUnits="userSpaceOnUse">
<stop stop-color="#F82A8A"/>
<stop offset="1" stop-color="#FF9320"/>
</linearGradient>
<linearGradient id="paint2_linear_533_1431" x1="23.8852" y1="22.6587" x2="23.8852" y2="25.9409" gradientUnits="userSpaceOnUse">
<stop stop-color="#F82A8A"/>
<stop offset="1" stop-color="#FF9320"/>
</linearGradient>
<linearGradient id="paint3_linear_533_1431" x1="10.9267" y1="19.9717" x2="10.9267" y2="23.2538" gradientUnits="userSpaceOnUse">
<stop stop-color="#F82A8A"/>
<stop offset="1" stop-color="#FF9320"/>
</linearGradient>
<linearGradient id="paint4_linear_533_1431" x1="20.0039" y1="7.9375" x2="20.0039" y2="11.2198" gradientUnits="userSpaceOnUse">
<stop stop-color="#F82A8A"/>
<stop offset="1" stop-color="#FF9320"/>
</linearGradient>
</defs>
</svg>
