<svg width="35" height="35" viewBox="0 0 35 35" fill="none" xmlns="http://www.w3.org/2000/svg">
<rect width="35" height="35" rx="8" fill="#F82A8A" fill-opacity="0.07"/>
<path d="M13.7716 19.0576H11.5231C11.2345 19.0576 11 19.2919 11 19.5808V27.823H18.3197L18.9009 25.033C18.9009 25.033 19.5051 24.927 20.0193 24.5755L20.4967 22.6356H14.8467C14.8467 22.6356 14.2946 22.5047 14.2946 22.0798V19.5809C14.2946 19.2918 14.0604 19.0576 13.7715 19.0576H13.7716Z" fill="url(#paint0_linear_533_1432)"/>
<path d="M24.8839 13.9002C24.8839 15.0944 23.9157 16.0626 22.7215 16.0626C21.5272 16.0626 20.5591 15.0944 20.5591 13.9002C20.5591 12.706 21.5271 11.7378 22.7215 11.7378C23.9157 11.7378 24.8839 12.706 24.8839 13.9002Z" fill="url(#paint1_linear_533_1432)"/>
<path d="M19.3321 15.8035C19.4564 15.3982 19.2291 14.9687 18.8239 14.8435C18.4184 14.7182 17.9879 14.9455 17.8624 15.3512C17.5353 16.41 17.3529 18.2439 18.1172 19.7223H20.0467C18.5556 18.4517 19.2948 15.9258 19.332 15.8033L19.3321 15.8035Z" fill="url(#paint2_linear_533_1432)"/>
<path d="M19.7607 26.5117C19.6022 27.1559 19.9959 27.8067 20.6402 27.9652C20.7366 27.9889 20.8331 28.0002 20.9281 28.0002C21.4681 28.0002 21.9589 27.6334 22.0937 27.0858L23.4873 21.4225C23.5755 21.064 23.494 20.6849 23.2663 20.3943C23.0386 20.1037 22.69 19.9341 22.3208 19.9341H17.9883C17.125 18.3774 17.3128 16.4126 17.6599 15.2891C17.7877 14.8757 18.164 14.5979 18.5965 14.5979C18.6943 14.5979 18.7916 14.6126 18.8859 14.6417C19.4013 14.8009 19.692 15.35 19.5338 15.8657C19.5142 15.9305 19.2739 16.7517 19.3367 17.6632C19.5297 17.1967 19.7227 16.7605 19.8858 16.3743C20.3518 15.4947 20.2335 14.3001 19.4726 13.9319C18.7116 13.5635 17.4561 13.7557 16.6938 15.0339C15.6562 16.7974 15.2598 18.0037 15.0653 20.1442C15.0423 21.7204 16.0478 22.0933 16.9122 22.2628C17.1654 22.3126 17.3788 22.3464 17.5595 22.3363C17.5612 22.3363 17.5627 22.3366 17.5645 22.3366H20.7879L19.7607 26.5117Z" fill="url(#paint3_linear_533_1432)"/>
<path d="M21.9548 8.22873C22.0478 8.13959 21.9583 7.93199 21.8644 8.02226C21.6299 8.24757 21.4527 8.56858 21.4145 8.95473C21.3732 9.37102 21.6806 9.63834 21.7152 10.0292C21.7385 10.2924 21.6156 10.5805 21.4747 10.756C21.3899 10.8613 21.517 11.0301 21.6014 10.9249C21.8373 10.6315 21.9404 10.2069 21.8626 9.79039C21.785 9.37578 21.4894 9.17614 21.6492 8.70332C21.7112 8.51931 21.832 8.34659 21.9548 8.22871L21.9548 8.22873Z" fill="url(#paint4_linear_533_1432)"/>
<path d="M23.0055 8.22873C23.0984 8.13959 23.009 7.93199 22.9151 8.02226C22.6806 8.24757 22.5035 8.56858 22.4652 8.95473C22.4241 9.37102 22.7314 9.63834 22.766 10.0292C22.7893 10.2924 22.6664 10.5805 22.5255 10.756C22.4407 10.8613 22.5677 11.0301 22.6522 10.9249C22.8881 10.6315 22.9912 10.2069 22.9133 9.79039C22.8359 9.37578 22.5401 9.17614 22.7 8.70332C22.7621 8.51931 22.8829 8.34659 23.0055 8.22871L23.0055 8.22873Z" fill="url(#paint5_linear_533_1432)"/>
<path d="M24.0564 8.22873C24.1494 8.13959 24.06 7.93199 23.966 8.02226C23.7314 8.24757 23.5543 8.56858 23.516 8.95473C23.4747 9.37102 23.7821 9.63834 23.8168 10.0292C23.8401 10.2924 23.7172 10.5805 23.5763 10.756C23.4915 10.8613 23.6187 11.0301 23.7031 10.9249C23.939 10.6315 24.042 10.2069 23.9643 9.79039C23.8868 9.37578 23.5909 9.17614 23.751 8.70332C23.813 8.51931 23.9337 8.34659 24.0563 8.22871L24.0564 8.22873Z" fill="url(#paint6_linear_533_1432)"/>
<defs>
<linearGradient id="paint0_linear_533_1432" x1="15.7483" y1="19.0576" x2="15.7483" y2="27.823" gradientUnits="userSpaceOnUse">
<stop stop-color="#F82D87"/>
<stop offset="1" stop-color="#FF8C27"/>
</linearGradient>
<linearGradient id="paint1_linear_533_1432" x1="22.7215" y1="11.7378" x2="22.7215" y2="16.0626" gradientUnits="userSpaceOnUse">
<stop stop-color="#F82D87"/>
<stop offset="1" stop-color="#FF8C27"/>
</linearGradient>
<linearGradient id="paint2_linear_533_1432" x1="18.8134" y1="14.8091" x2="18.8134" y2="19.7223" gradientUnits="userSpaceOnUse">
<stop stop-color="#F82D87"/>
<stop offset="1" stop-color="#FF8C27"/>
</linearGradient>
<linearGradient id="paint3_linear_533_1432" x1="19.2935" y1="13.7656" x2="19.2935" y2="28.0002" gradientUnits="userSpaceOnUse">
<stop stop-color="#F82D87"/>
<stop offset="1" stop-color="#FF8C27"/>
</linearGradient>
<linearGradient id="paint4_linear_533_1432" x1="21.7023" y1="8" x2="21.7023" y2="10.9581" gradientUnits="userSpaceOnUse">
<stop stop-color="#F82D87"/>
<stop offset="1" stop-color="#FF8C27"/>
</linearGradient>
<linearGradient id="paint5_linear_533_1432" x1="22.7531" y1="8" x2="22.7531" y2="10.9581" gradientUnits="userSpaceOnUse">
<stop stop-color="#F82D87"/>
<stop offset="1" stop-color="#FF8C27"/>
</linearGradient>
<linearGradient id="paint6_linear_533_1432" x1="23.8039" y1="8" x2="23.8039" y2="10.9581" gradientUnits="userSpaceOnUse">
<stop stop-color="#F82D87"/>
<stop offset="1" stop-color="#FF8C27"/>
</linearGradient>
</defs>
</svg>
