<svg width="35" height="35" viewBox="0 0 35 35" fill="none" xmlns="http://www.w3.org/2000/svg">
<rect width="35" height="35" rx="8" fill="#F82A8A" fill-opacity="0.07"/>
<path d="M10.4221 28H11.8498C11.4319 26.1791 13.0878 25.2326 13.1059 25.2326C13.1309 25.2193 13.1588 25.2122 13.1872 25.2122C17.0592 25.2122 19.8628 24.3087 21.5256 22.5014C22.8223 21.1008 23.3917 19.2098 23.2153 16.8807C22.9443 13.2888 21.747 11.3887 19.7568 11.3887C16.8335 11.3887 16.7996 12.6719 16.7996 12.6855C16.7994 12.7736 16.7317 12.8469 16.6438 12.8539C16.556 12.861 16.4774 12.7996 16.463 12.7126C16.0768 10.2275 17.0571 8.62367 17.5451 8H16.2235C15.9479 8.34557 14.5902 10.2162 15.1774 12.6468C15.1774 12.6853 15.4034 14.5084 16.2302 15.0008H16.2304C16.2668 15.0222 16.2936 15.0572 16.3049 15.098C16.332 15.1861 16.9285 17.3007 15.7786 18.7736C15.1009 19.6501 13.9396 20.1042 12.3516 20.1291C11.4006 20.1291 10.7136 20.547 10.4155 21.3061C10.0157 22.3226 10.3749 23.7074 11.2537 24.5253L11.2535 24.5252C11.2918 24.5595 11.3118 24.6096 11.3077 24.6607C11.3054 24.712 11.2784 24.759 11.2356 24.7872C11.1722 24.8279 9.71743 25.8896 10.4223 27.9997L10.4221 28ZM13.2505 21.2228C13.2754 21.2228 15.7806 20.8342 16.9893 19.0201C17.667 17.999 17.8183 16.7114 17.441 15.1933C17.4297 15.1452 17.4387 15.0945 17.4658 15.0532C17.4951 15.013 17.5405 14.9875 17.5901 14.9832L21.5073 14.6149C21.5878 14.6072 21.6625 14.6573 21.6858 14.7347C21.7287 14.8702 22.6934 18.0894 20.9132 20.7801C19.6571 22.6801 17.3665 23.8096 14.1089 24.1417C14.0267 24.1543 13.9436 24.1604 13.8604 24.1598C13.4528 24.1506 13.061 23.9997 12.7525 23.7329C12.4441 23.4663 12.2383 23.1002 12.1707 22.6981C12.0758 22.1311 12.3016 21.4037 13.2504 21.2252L13.2505 21.2228Z" fill="url(#paint0_linear_533_1433)"/>
<path d="M14.0564 23.8071C17.219 23.4841 19.4306 22.4042 20.6279 20.5993C22.1233 18.3402 21.5564 15.5978 21.3959 14.9697L17.8132 15.304C18.1634 16.8378 17.9826 18.1527 17.2756 19.2121C15.9924 21.1346 13.4623 21.5367 13.3086 21.5593C12.7054 21.6723 12.4051 22.0788 12.4931 22.6436V22.6438C12.5532 23.002 12.7495 23.3229 13.0409 23.5398C13.3321 23.7566 13.6961 23.8524 14.0563 23.8072L14.0564 23.8071Z" fill="url(#paint1_linear_533_1433)"/>
<path d="M12.9471 14.0549C12.911 14.8659 13.6452 15.2364 14.036 15.3199H14.0722C14.1546 15.3149 14.2214 15.2512 14.2304 15.1691C14.2392 15.087 14.1877 15.0104 14.1083 14.9878C14.0744 14.9878 13.2566 14.8002 13.2882 14.0706C13.3335 13.0677 12.1813 12.7333 12.1316 12.7151C12.0411 12.6902 11.9475 12.7433 11.9226 12.8338C11.8977 12.9242 11.9508 13.0178 12.0413 13.0427C12.0413 13.0427 12.9787 13.3183 12.9471 14.0549L12.9471 14.0549Z" fill="url(#paint2_linear_533_1433)"/>
<path d="M10.2862 14.6712C10.2388 14.6706 10.1931 14.6898 10.1604 14.7245C10.1278 14.759 10.1111 14.8058 10.1147 14.8533C10.1182 14.9007 10.1415 14.9443 10.1789 14.9738C10.2162 15.0033 10.2641 15.0156 10.3111 15.0078C10.3517 15.0078 11.2916 14.9401 11.5152 15.6404V15.6405C11.6055 15.896 11.7768 16.115 12.0032 16.2639C12.2297 16.4128 12.4986 16.4834 12.769 16.465C12.8377 16.4648 12.9066 16.4595 12.9745 16.4492C13.0614 16.43 13.1186 16.3468 13.1055 16.2589C13.0924 16.1709 13.0136 16.1081 12.9249 16.1149C12.8888 16.1149 12.0596 16.2323 11.8382 15.5387C11.5333 14.581 10.336 14.6669 10.2862 14.6713L10.2862 14.6712Z" fill="url(#paint3_linear_533_1433)"/>
<path d="M10.0084 17.6488C10.0375 17.7372 10.1316 17.7862 10.2208 17.7596C10.2592 17.746 11.1606 17.4704 11.5357 18.1029H11.5355C11.6415 18.2809 11.7936 18.4268 11.9758 18.5254C12.1579 18.6241 12.3633 18.6717 12.5702 18.6632C12.7644 18.6633 12.9573 18.629 13.1395 18.5615C13.2268 18.5278 13.2703 18.4298 13.2365 18.3423C13.203 18.255 13.1048 18.2115 13.0175 18.2453C12.9836 18.2588 12.1975 18.5525 11.827 17.929C11.3142 17.0661 10.1666 17.4206 10.1191 17.4366C10.0759 17.4495 10.0397 17.4794 10.0189 17.5193C9.99809 17.5593 9.99431 17.606 10.0083 17.6488L10.0084 17.6488Z" fill="url(#paint4_linear_533_1433)"/>
<path d="M22.9305 27.4917C22.9609 27.5191 23.0003 27.5344 23.0413 27.5347C23.0906 27.5346 23.1375 27.5131 23.17 27.476C23.2001 27.4407 23.2144 27.3946 23.2097 27.3486C23.2051 27.3025 23.1817 27.2604 23.1451 27.232C23.1158 27.2049 22.4086 26.5814 22.7497 25.9307C23.127 25.2123 22.621 24.5752 22.298 24.3245C22.2228 24.2697 22.1175 24.2846 22.0608 24.3584C22.0045 24.4332 22.0198 24.5395 22.0947 24.5956C22.1218 24.6181 22.7724 25.1332 22.447 25.7747C21.9907 26.6649 22.892 27.4556 22.9305 27.4917L22.9305 27.4917Z" fill="url(#paint5_linear_533_1433)"/>
<path d="M23.3913 23.1044C23.2991 23.1183 23.2355 23.2042 23.2489 23.2964C23.2629 23.3889 23.3483 23.4532 23.4409 23.441C23.4748 23.441 24.3062 23.3258 24.5276 24.0171C24.7807 24.8147 25.6572 24.8868 25.9689 24.8868H26.0819C26.1755 24.8793 26.2451 24.7973 26.2377 24.7039C26.2302 24.6103 26.1484 24.5405 26.0548 24.5479C26.0141 24.5479 25.0767 24.6156 24.8529 23.9153C24.6044 23.1405 23.7889 23.0478 23.3914 23.1044L23.3913 23.1044Z" fill="url(#paint6_linear_533_1433)"/>
<path d="M24.3468 21.433C24.3807 21.4217 25.1646 21.1281 25.5351 21.7493H25.5349C25.6528 21.9393 25.8203 22.0936 26.0194 22.1956C26.2184 22.2975 26.4415 22.343 26.6645 22.3276C26.864 22.3273 27.0625 22.2991 27.2541 22.2441C27.3424 22.2149 27.3908 22.1202 27.3626 22.0317C27.3496 21.9885 27.3197 21.9524 27.2798 21.9316C27.2398 21.9106 27.1932 21.9069 27.1503 21.921C27.1118 21.921 26.2129 22.208 25.8354 21.5755C25.4221 20.8798 24.6065 20.9723 24.2314 21.1237L24.2316 21.1235C24.1525 21.1626 24.1167 21.2557 24.1491 21.3377C24.1816 21.4196 24.2714 21.4631 24.3557 21.4376L24.3468 21.433Z" fill="url(#paint7_linear_533_1433)"/>
<defs>
<linearGradient id="paint0_linear_533_1433" x1="16.7383" y1="8" x2="16.7383" y2="28" gradientUnits="userSpaceOnUse">
<stop stop-color="#F82E86"/>
<stop offset="1" stop-color="#FE8330"/>
</linearGradient>
<linearGradient id="paint1_linear_533_1433" x1="17.0566" y1="14.9697" x2="17.0566" y2="23.8182" gradientUnits="userSpaceOnUse">
<stop stop-color="#F82E86"/>
<stop offset="1" stop-color="#FE8330"/>
</linearGradient>
<linearGradient id="paint2_linear_533_1433" x1="13.0739" y1="12.709" x2="13.0739" y2="15.3199" gradientUnits="userSpaceOnUse">
<stop stop-color="#F82E86"/>
<stop offset="1" stop-color="#FE8330"/>
</linearGradient>
<linearGradient id="paint3_linear_533_1433" x1="11.6108" y1="14.6675" x2="11.6108" y2="16.4679" gradientUnits="userSpaceOnUse">
<stop stop-color="#F82E86"/>
<stop offset="1" stop-color="#FE8330"/>
</linearGradient>
<linearGradient id="paint4_linear_533_1433" x1="11.624" y1="17.3511" x2="11.624" y2="18.6641" gradientUnits="userSpaceOnUse">
<stop stop-color="#F82E86"/>
<stop offset="1" stop-color="#FE8330"/>
</linearGradient>
<linearGradient id="paint5_linear_533_1433" x1="22.6187" y1="24.2915" x2="22.6187" y2="27.5347" gradientUnits="userSpaceOnUse">
<stop stop-color="#F82E86"/>
<stop offset="1" stop-color="#FE8330"/>
</linearGradient>
<linearGradient id="paint6_linear_533_1433" x1="24.7427" y1="23.0908" x2="24.7427" y2="24.8868" gradientUnits="userSpaceOnUse">
<stop stop-color="#F82E86"/>
<stop offset="1" stop-color="#FE8330"/>
</linearGradient>
<linearGradient id="paint7_linear_533_1433" x1="25.7539" y1="21.0166" x2="25.7539" y2="22.3305" gradientUnits="userSpaceOnUse">
<stop stop-color="#F82E86"/>
<stop offset="1" stop-color="#FE8330"/>
</linearGradient>
</defs>
</svg>
