<svg width="35" height="35" viewBox="0 0 35 35" fill="none" xmlns="http://www.w3.org/2000/svg">
<rect width="35" height="35" rx="8" fill="#F82A8A" fill-opacity="0.07"/>
<path d="M16.7317 19.195L12.6097 24.1217C12.2195 23.39 12 22.5365 12 21.6339V15.7804C12 15.1218 12.122 14.512 12.3414 13.9268L16.7317 19.195ZM15.4145 15.7805C15.3171 15.7805 15.2437 15.7805 15.1462 15.7562L17.756 18.8781L20.2682 21.878H20.5365H21.512V20.9025C21.512 20.1219 22.0243 19.4879 22.7315 19.2683V15.7805C22.7315 14.9268 22.5364 14.1464 22.1949 13.4147C21.9266 14.7562 20.7314 15.7805 19.317 15.7805L15.4145 15.7805ZM18.8292 23.5852C18.8292 23.0975 19.0243 22.6584 19.3658 22.3414L17.3657 19.9512L13.1707 24.9756C14.1462 26.195 15.6585 26.9999 17.3657 26.9999C18.9023 26.9999 20.2925 26.3413 21.2925 25.2927L20.5365 25.2925C19.5852 25.2925 18.8292 24.5365 18.8292 23.5852V23.5852ZM13.4634 12.8537V10.9025C13.4634 8.75611 15.2195 7 17.3659 7C19.5123 7 21.2684 8.75607 21.2684 10.9025V12.8537C21.2684 13.9269 20.3903 14.8049 19.3171 14.8049H18.9025C19 14.5855 19.0733 14.3415 19.0733 14.0732C19.0733 13.122 18.3173 12.3659 17.3661 12.3659C16.4149 12.3659 15.6588 13.122 15.6588 14.0732C15.6588 14.3415 15.7077 14.5855 15.8297 14.8049H15.4145C14.3415 14.8049 13.4635 13.9269 13.4635 12.8537H13.4634ZM18.8292 11.3902C18.8292 11.6585 19.0487 11.878 19.317 11.878C19.5852 11.878 19.8047 11.6585 19.8047 11.3902V10.9025C19.8047 10.6342 19.5852 10.4147 19.317 10.4147C19.0487 10.4147 18.8292 10.6342 18.8292 10.9025V11.3902ZM14.9267 11.3902C14.9267 11.6585 15.1462 11.878 15.4145 11.878C15.6828 11.878 15.9022 11.6585 15.9022 11.3902V10.9025C15.9022 10.6342 15.6828 10.4147 15.4145 10.4147C15.1462 10.4147 14.9267 10.6342 14.9267 10.9025V11.3902ZM18.0975 14.0732C18.0975 13.6586 17.7803 13.3415 17.3657 13.3415C16.9511 13.3415 16.634 13.6586 16.634 14.0732C16.634 14.4635 16.9511 14.8049 17.3657 14.8049C17.7803 14.8049 18.0975 14.4635 18.0975 14.0732ZM25.9022 22.8535H24.4387C24.1704 22.8535 23.951 22.6341 23.951 22.3658V20.9023C23.951 20.4877 23.6339 20.1706 23.2193 20.1706C22.8046 20.1706 22.4875 20.4877 22.4875 20.9023V22.3658C22.4875 22.6341 22.268 22.8535 21.9998 22.8535H20.5363C20.1217 22.8535 19.8045 23.1707 19.8045 23.5853C19.8045 23.9756 20.1217 24.317 20.5363 24.317H21.9998C22.2681 24.317 22.4875 24.5365 22.4875 24.8048V26.2683C22.4875 26.6585 22.8046 27 23.2193 27C23.6339 27 23.951 26.6586 23.951 26.2683V24.8048C23.951 24.5365 24.1705 24.317 24.4387 24.317H25.9022C26.3168 24.317 26.634 23.9756 26.634 23.5853C26.634 23.1707 26.3168 22.8535 25.9022 22.8535Z" fill="url(#paint0_linear_533_1434)"/>
<defs>
<linearGradient id="paint0_linear_533_1434" x1="19.317" y1="7" x2="19.317" y2="27" gradientUnits="userSpaceOnUse">
<stop stop-color="#F82A8A"/>
<stop offset="1" stop-color="#FE8033"/>
</linearGradient>
</defs>
</svg>
