<svg width="35" height="35" viewBox="0 0 35 35" fill="none" xmlns="http://www.w3.org/2000/svg">
<rect width="35" height="35" rx="8" fill="#F82A8A" fill-opacity="0.07"/>
<path d="M15.4839 18.9793V18.2583H14.3441V18.9793C14.3441 19.149 14.2066 19.2872 14.0369 19.2872L13.3159 19.2871V20.4256H14.0369C14.2066 20.4256 14.3441 20.5638 14.3441 20.7335V21.4545H15.484V20.7335C15.484 20.5638 15.6215 20.4256 15.7912 20.4256H16.5122V19.2871H15.7918C15.6221 19.2871 15.4839 19.149 15.4839 18.9793L15.4839 18.9793Z" fill="url(#paint0_linear_533_1435)"/>
<path d="M10.0031 16.7976C10.0039 17.4513 10.0039 18.1056 10.0024 18.7594L10.0017 22.6714C10.0017 22.7516 10.001 22.8311 10.001 22.9105C11.2231 22.9069 12.4468 22.9084 13.6681 22.9077H16.0752C17.3238 22.9069 18.5726 22.9062 19.8213 22.9098C19.8292 20.8729 19.8285 18.8345 19.8184 16.7974C16.5474 16.8038 13.2751 16.8024 10.0032 16.7974L10.0031 16.7976ZM17.1279 20.7326C17.1279 20.9023 16.9904 21.0405 16.8207 21.0405L16.099 21.0404V21.7614C16.099 21.9311 15.9615 22.0693 15.7917 22.0693H14.0369C13.8672 22.0693 13.7297 21.9311 13.7297 21.7614V21.0404H13.008C12.8383 21.0404 12.7008 20.9022 12.7008 20.7325V18.9783C12.7008 18.8086 12.8383 18.6704 13.008 18.6704H13.729V17.9494C13.729 17.7797 13.8665 17.6415 14.0362 17.6415H15.7911C15.9608 17.6415 16.0983 17.7797 16.0983 17.9494V18.6704H16.8193C16.989 18.6704 17.1265 18.8086 17.1265 18.9783L17.1264 20.7326L17.1279 20.7326Z" fill="url(#paint1_linear_533_1435)"/>
<path d="M14.8804 23.525L13.6675 23.5243C12.4454 23.5236 11.2217 23.5236 10.001 23.5272C10.001 23.7277 10.0017 23.9281 10.0031 24.1294C10.0096 25.2026 10.7872 25.9866 11.8511 25.991C13.8916 26.0025 15.9322 26.0039 17.9734 25.991C19.0351 25.9859 19.8106 25.2192 19.8163 24.1695C19.8177 23.9555 19.8184 23.7414 19.8199 23.528C18.5718 23.5244 17.3239 23.5244 16.076 23.5252L14.8804 23.525Z" fill="url(#paint2_linear_533_1435)"/>
<path d="M19.8163 16.1846C19.8156 16.0636 19.8148 15.9426 19.8141 15.8222C19.8084 14.9544 19.4053 14.2758 18.6156 13.8053C18.4451 13.7036 18.3228 13.6307 18.2125 13.5426C17.5824 13.0371 17.281 12.3297 17.3153 11.4404C17.3153 11.4368 17.316 11.4353 17.3168 11.4318H16.8951C16.8936 11.4318 16.8929 11.4325 16.8922 11.4325C16.8915 11.4325 16.89 11.4318 16.8893 11.4318H14.9984C14.9976 11.4318 14.9969 11.4325 14.9962 11.4325C14.9955 11.4326 14.9948 11.4312 14.994 11.4312H13.1003H13.0996H12.5046C12.5196 12.5173 12.1065 13.2942 11.2344 13.7918C10.4017 14.2679 9.99786 14.9746 10 15.954C10.0007 16.0306 10.0007 16.1064 10.0007 16.183C13.2727 16.1882 16.5443 16.1875 19.8163 16.1846L19.8163 16.1846Z" fill="url(#paint3_linear_533_1435)"/>
<path d="M14.6888 9.00244H13.4072V10.816H14.6888V9.00244Z" fill="url(#paint4_linear_533_1435)"/>
<path d="M18.1942 10.5475C18.2043 10.1201 18.2057 9.69196 18.1928 9.26381C18.1877 9.08485 18.1011 9.00178 17.9207 9.00178C17.6801 9.00107 17.4395 9.00178 17.1997 9.00178V10.8146H17.9214C18.142 10.8031 18.1906 10.7007 18.1942 10.5475L18.1942 10.5475Z" fill="url(#paint5_linear_533_1435)"/>
<path d="M22.8552 9.00034C21.4053 9.00034 20.2261 10.6142 20.2261 12.5988C20.2261 14.2405 21.0458 15.6703 22.2208 16.0757C22.3583 16.1229 22.4436 16.2604 22.4256 16.4044L21.8034 21.5429C21.7117 22.3089 21.5929 23.5791 21.517 24.4985C21.4941 24.7763 21.6338 25.2302 21.9452 25.5609C22.1185 25.7456 22.4256 25.9633 22.8487 25.9525C23.3112 25.9497 23.5933 25.7457 23.7666 25.5609C24.078 25.2301 24.2176 24.7755 24.1947 24.4985C24.1182 23.5777 23.9993 22.3062 23.9077 21.5429L23.4036 17.3743L23.2862 16.4034C23.2683 16.2595 23.3534 16.122 23.4909 16.0747C24.6651 15.6695 25.4857 14.2396 25.4857 12.5978C25.4842 10.6137 24.305 9 22.8551 9L22.8552 9.00034ZM21.7632 12.5988C21.7632 12.7685 21.6257 12.9067 21.456 12.9067C21.2863 12.9067 21.1488 12.7685 21.1488 12.5988C21.1488 11.1732 21.9463 9.92175 22.8563 9.92175C23.0261 9.92175 23.1636 10.06 23.1636 10.2297C23.1636 10.3994 23.0261 10.5376 22.8563 10.5376C22.4205 10.5374 21.7632 11.3594 21.7632 12.5988H21.7632ZM23.1866 24.8169C23.1844 24.8191 23.1823 24.8205 23.1801 24.8227C23.145 24.8699 23.1192 24.9036 23.0949 24.9287C23.0354 24.9917 22.9538 25.0253 22.8715 25.0253C22.83 25.0253 22.7891 25.0166 22.7498 24.9995C22.5765 24.9243 22.462 24.731 22.4384 24.5785C22.4671 24.1504 22.5064 23.7229 22.5487 23.2883C22.5637 23.1315 22.6963 23.0105 22.8545 23.0105H22.8552C23.0141 23.0112 23.1459 23.1314 23.161 23.2898C23.2032 23.7379 23.2419 24.1884 23.2741 24.5749C23.2819 24.6645 23.2497 24.7533 23.1866 24.8169L23.1866 24.8169Z" fill="url(#paint6_linear_533_1435)"/>
<path d="M12.7926 10.8159V9.00227C12.4969 9.00227 12.2019 9.00155 11.9062 9.00227C11.7129 9.00227 11.6363 9.07958 11.6327 9.27652C11.6284 9.54861 11.6291 9.81998 11.6305 10.0906L11.6312 10.551C11.6312 10.6462 11.6592 10.7121 11.7251 10.7716C11.7673 10.8103 11.8375 10.8152 11.9714 10.8159L12.7926 10.8159Z" fill="url(#paint7_linear_533_1435)"/>
<path d="M16.5846 9.00227C16.1579 9.00155 15.7304 9.00227 15.3037 9.00227V10.8151H16.5846V9.00227Z" fill="url(#paint8_linear_533_1435)"/>
<defs>
<linearGradient id="paint0_linear_533_1435" x1="14.9141" y1="18.2583" x2="14.9141" y2="21.4545" gradientUnits="userSpaceOnUse">
<stop stop-color="#F82D88"/>
<stop offset="1" stop-color="#FE7B39"/>
</linearGradient>
<linearGradient id="paint1_linear_533_1435" x1="14.9138" y1="16.7974" x2="14.9138" y2="22.9105" gradientUnits="userSpaceOnUse">
<stop stop-color="#F82D88"/>
<stop offset="1" stop-color="#FE7B39"/>
</linearGradient>
<linearGradient id="paint2_linear_533_1435" x1="14.9104" y1="23.5239" x2="14.9104" y2="26.0002" gradientUnits="userSpaceOnUse">
<stop stop-color="#F82D88"/>
<stop offset="1" stop-color="#FE7B39"/>
</linearGradient>
<linearGradient id="paint3_linear_533_1435" x1="14.9081" y1="11.4312" x2="14.9081" y2="16.1868" gradientUnits="userSpaceOnUse">
<stop stop-color="#F82D88"/>
<stop offset="1" stop-color="#FE7B39"/>
</linearGradient>
<linearGradient id="paint4_linear_533_1435" x1="14.048" y1="9.00244" x2="14.048" y2="10.816" gradientUnits="userSpaceOnUse">
<stop stop-color="#F82D88"/>
<stop offset="1" stop-color="#FE7B39"/>
</linearGradient>
<linearGradient id="paint5_linear_533_1435" x1="17.7009" y1="9.00146" x2="17.7009" y2="10.8146" gradientUnits="userSpaceOnUse">
<stop stop-color="#F82D88"/>
<stop offset="1" stop-color="#FE7B39"/>
</linearGradient>
<linearGradient id="paint6_linear_533_1435" x1="22.8559" y1="9" x2="22.8559" y2="25.9529" gradientUnits="userSpaceOnUse">
<stop stop-color="#F82D88"/>
<stop offset="1" stop-color="#FE7B39"/>
</linearGradient>
<linearGradient id="paint7_linear_533_1435" x1="12.211" y1="9.00195" x2="12.211" y2="10.8159" gradientUnits="userSpaceOnUse">
<stop stop-color="#F82D88"/>
<stop offset="1" stop-color="#FE7B39"/>
</linearGradient>
<linearGradient id="paint8_linear_533_1435" x1="15.9441" y1="9.00195" x2="15.9441" y2="10.8151" gradientUnits="userSpaceOnUse">
<stop stop-color="#F82D88"/>
<stop offset="1" stop-color="#FE7B39"/>
</linearGradient>
</defs>
</svg>
