<svg width="35" height="35" viewBox="0 0 35 35" fill="none" xmlns="http://www.w3.org/2000/svg">
<rect width="35" height="35" rx="8" fill="#F82A8A" fill-opacity="0.07"/>
<path d="M9 13.7222C9 12.6799 9.84673 11.8333 10.8888 11.8333H11.8332V10.889C11.8332 9.84673 12.6799 9.00015 13.7222 9C14.7644 9 15.611 9.84673 15.611 10.889V12.9401L16.8321 14.1612L14.1611 16.8322L12.94 15.6111H10.8888C9.84673 15.611 9 14.7626 9 13.7222V13.7222ZM24.1109 15.611C25.1532 15.611 25.9997 14.7624 25.9997 13.7222C25.9997 12.6799 25.1532 11.8333 24.1109 11.8333H23.1664V10.889C23.1664 9.84673 22.3197 9.00015 21.2774 9.00015C20.2352 9.00015 19.3886 9.84687 19.3886 10.889V12.9401L12.9401 19.3887H10.8889C9.84665 19.3887 9.00007 20.2354 9.00007 21.2775C9.00007 22.3177 9.84665 23.1663 10.8889 23.1663H11.8333V24.1109C11.8333 25.1512 12.68 25.9997 13.7221 25.9998C14.7643 25.9998 15.611 25.1513 15.6109 24.1109V22.0597L22.0595 15.6111L24.1109 15.611ZM24.1109 19.3889H22.0597L20.8386 18.1678L18.1677 20.8388L19.3888 22.0599V24.111C19.3888 25.1514 20.2354 26 21.2776 26C22.3198 25.9999 23.1665 25.1515 23.1665 24.111V23.1667H24.1109C25.1532 23.1667 25.9999 22.3181 25.9999 21.2778C25.9997 20.2356 25.1532 19.3889 24.1109 19.3889V19.3889Z" fill="url(#paint0_linear_471_1431)"/>
<defs>
<linearGradient id="paint0_linear_471_1431" x1="17.4999" y1="9" x2="17.4999" y2="26" gradientUnits="userSpaceOnUse">
<stop stop-color="#FE862D"/>
<stop offset="1" stop-color="#F83382"/>
</linearGradient>
</defs>
</svg>
