<svg width="23" height="18" viewBox="0 0 23 18" fill="none" xmlns="http://www.w3.org/2000/svg">
<path d="M22.5736 7.77656L15.178 0.380937C14.6704 -0.126693 13.8487 -0.126693 13.3654 0.380937C12.8577 0.888566 12.8577 1.71026 13.3654 2.19359L18.5616 7.41403L1.281 7.41403C0.580195 7.41403 6.1855e-05 7.99412 6.17937e-05 8.69497C6.17324e-05 9.39582 0.580153 9.97591 1.281 9.97591L18.5616 9.97592L13.3653 15.1722C12.8577 15.6798 12.8577 16.5015 13.3653 16.9848C13.6071 17.2266 13.9454 17.3716 14.2838 17.3716C14.6222 17.3716 14.9364 17.2507 15.2023 16.9848L22.5737 9.61339C22.8155 9.37163 22.9604 9.03329 22.9604 8.69493C22.9605 8.35657 22.8155 8.01821 22.5737 7.77648L22.5736 7.77656Z" fill="#35364F"/>
</svg>
