<svg width="23" height="18" viewBox="0 0 23 18" fill="none" xmlns="http://www.w3.org/2000/svg">
<path d="M0.386824 9.59502L7.78245 16.9906C8.29008 17.4983 9.11177 17.4983 9.5951 16.9906C10.1027 16.483 10.1027 15.6613 9.5951 15.178L4.39883 9.95755H21.6794C22.3803 9.95755 22.9604 9.37746 22.9604 8.67661C22.9604 7.97576 22.3803 7.39567 21.6794 7.39567H4.39883L9.5951 2.19939C10.1027 1.69176 10.1027 0.870069 9.5951 0.386738C9.35334 0.144982 9.01501 0 8.67665 0C8.33829 0 8.02405 0.120878 7.75819 0.386738L0.386738 7.7582C0.144982 7.99995 0 8.33829 0 8.67665C0 9.01501 0.144986 9.35337 0.386738 9.5951L0.386824 9.59502Z" fill="#35364F"/>
</svg>
