<svg width="21" height="20" viewBox="0 0 21 20" fill="none" xmlns="http://www.w3.org/2000/svg">
<path d="M0.321206 0.000477749C0.138705 0.0187915 -0.000158858 0.172469 1.36395e-07 0.355925V4.65327C0.000796374 4.85026 0.16116 5.00935 0.358154 5.00856H4.59231C4.78819 5.00776 4.9468 4.84914 4.94759 4.65327V0.355925C4.9468 0.159888 4.78818 0.0012768 4.59231 0.000477749H0.358154C0.345892 -0.00015925 0.333471 -0.00015925 0.321208 0.000477749H0.321206ZM7.12822 0.000477749C6.94572 0.0187915 6.80686 0.172469 6.80702 0.355925V4.65327C6.80781 4.84915 6.96643 5.00776 7.1623 5.00856H19.6438C19.8408 5.00935 20.0012 4.85026 20.002 4.65327V0.355925C20.0012 0.158775 19.8408 -0.00015823 19.6438 0.000477749H7.1623C7.15099 3.05643e-08 7.13953 3.05643e-08 7.12822 0.000477749H7.12822ZM0.358305 7.49444C0.263234 7.49412 0.171825 7.5317 0.104619 7.5989C0.0374169 7.66611 -0.000167002 7.75736 0.000150988 7.85259V12.1479V12.1477C-0.000167532 12.243 0.0374153 12.3342 0.104619 12.4014C0.171821 12.4686 0.26323 12.5064 0.358305 12.5059H4.59246C4.78945 12.5051 4.94854 12.3449 4.94774 12.1477V7.85243C4.94854 7.65544 4.78945 7.49508 4.59246 7.49428L0.358305 7.49444ZM7.16247 7.49444C6.96548 7.49523 6.80639 7.6556 6.80718 7.85259V12.1479V12.1477C6.80639 12.3449 6.96548 12.5051 7.16247 12.5059H19.644C19.739 12.5064 19.8304 12.4686 19.8977 12.4014C19.9649 12.3342 20.0024 12.243 20.0021 12.1477V7.85243C20.0024 7.7572 19.9649 7.66595 19.8977 7.59874C19.8305 7.53154 19.739 7.49396 19.644 7.49428L7.16247 7.49444ZM0.358305 14.9892C0.263234 14.9887 0.171825 15.0265 0.104619 15.0937C0.0374169 15.1609 -0.000167002 15.2521 0.000150988 15.3472V19.6446C0.000947226 19.8417 0.161311 20.0006 0.358305 20H4.59246C4.78834 19.9992 4.94695 19.8406 4.94774 19.6446V15.3472C4.94854 15.1502 4.78945 14.99 4.59246 14.9892L0.358305 14.9892ZM7.16247 14.9892C6.96548 14.99 6.80639 15.1502 6.80718 15.3472V19.6445C6.80798 19.8406 6.96659 19.9992 7.16247 20H19.644C19.841 20.0006 20.0013 19.8417 20.0021 19.6445V15.3472C20.0024 15.2521 19.9649 15.1609 19.8977 15.0937C19.8305 15.0265 19.739 14.9887 19.644 14.9892L7.16247 14.9892Z" fill="#94959F"/>
</svg>
