<svg width="20" height="20" viewBox="0 0 20 20" fill="none" xmlns="http://www.w3.org/2000/svg">
<path d="M11.4286 12.8572H6.78578C6.58856 12.8572 6.42864 13.0171 6.42864 13.2143V15.2524L2.31072 11.4286L6.42864 7.60484V9.64295C6.42864 9.73765 6.46627 9.82853 6.53323 9.89549C6.6002 9.96246 6.69108 10.0001 6.78578 10.0001H11.4286V12.8572ZM3.92866 3.57157H5.92354L2.85724 0.505269V2.50015C2.85756 2.78427 2.9706 3.05659 3.17134 3.25749C3.37223 3.45822 3.64456 3.57126 3.92868 3.57158L3.92866 3.57157ZM1.42869 11.4286C1.42869 11.3293 1.46998 11.2345 1.54284 11.167L6.42852 6.6299V4.28568H3.92854C3.45515 4.2852 3.00124 4.0969 2.66643 3.76209C2.33161 3.42728 2.14333 2.97336 2.14284 2.49998V0H0V19.9998H5.3571C5.64121 19.9995 5.91354 19.8865 6.11427 19.6856C6.31517 19.4848 6.42821 19.2125 6.42852 18.9284V16.227L1.54285 11.6899C1.46999 11.6225 1.42869 11.5276 1.42869 11.4283L1.42869 11.4286ZM10.3572 0.000171426H20V5.71441H14.6429C14.4456 5.71441 14.2857 5.87432 14.2857 6.07155C14.2857 6.26877 14.4456 6.42869 14.6429 6.42869H20V7.85725H19.6428C19.4456 7.85725 19.2857 8.01716 19.2857 8.21439C19.2857 8.41161 19.4456 8.57153 19.6428 8.57153H20V10.0001H16.7857C16.5885 10.0001 16.4286 10.16 16.4286 10.3572C16.4286 10.5544 16.5885 10.7144 16.7857 10.7144H20V12.1429H13.9286C13.7314 12.1429 13.5714 12.3028 13.5714 12.5001C13.5714 12.6973 13.7314 12.8572 13.9286 12.8572H20V16.4286H16.7857C16.5885 16.4286 16.4286 16.5885 16.4286 16.7857C16.4286 16.983 16.5885 17.1429 16.7857 17.1429H20V20H10.3572C10.0731 19.9997 9.80074 19.8866 9.6 19.6857C9.39911 19.485 9.28607 19.2127 9.28575 18.9286V13.5715H11.7857C11.8804 13.5715 11.9713 13.5338 12.0383 13.4669C12.1052 13.3999 12.1429 13.309 12.1429 13.2143V9.64294C12.1429 9.54823 12.1052 9.45735 12.0383 9.39039C11.9713 9.32343 11.8804 9.2858 11.7857 9.2858H9.28575V1.07158C9.28607 0.787467 9.39911 0.515138 9.6 0.314405C9.80074 0.113513 10.0731 0.000473442 10.3572 0.000155078V0.000171426ZM15.7143 16.7857C15.7143 16.691 15.6767 16.6002 15.6097 16.5332C15.5427 16.4662 15.4518 16.4286 15.3571 16.4286H11.0715C10.8742 16.4286 10.7143 16.5885 10.7143 16.7857C10.7143 16.983 10.8742 17.1429 11.0715 17.1429H15.3571C15.4518 17.1429 15.5427 17.1053 15.6097 17.0383C15.6766 16.9713 15.7143 16.8804 15.7143 16.7857ZM15 14.6429C15 14.7376 15.0376 14.8285 15.1046 14.8955C15.1716 14.9624 15.2624 15 15.3571 15H18.9285C19.1258 15 19.2857 14.8401 19.2857 14.6429C19.2857 14.4457 19.1258 14.2858 18.9285 14.2858H15.3571C15.1599 14.2858 15 14.4457 15 14.6429ZM12.5 14.2858C12.3028 14.2858 12.1429 14.4457 12.1429 14.6429C12.1429 14.8401 12.3028 15 12.5 15H13.9286C14.1258 15 14.2857 14.8401 14.2857 14.6429C14.2857 14.4457 14.1258 14.2858 13.9286 14.2858H12.5ZM15.7143 10.3572C15.7143 10.2625 15.6767 10.1716 15.6097 10.1047C15.5427 10.0377 15.4518 10.0001 15.3571 10.0001H13.9286C13.7314 10.0001 13.5714 10.16 13.5714 10.3572C13.5714 10.5544 13.7314 10.7144 13.9286 10.7144H15.3571C15.4518 10.7144 15.5427 10.6767 15.6097 10.6098C15.6766 10.5428 15.7143 10.4519 15.7143 10.3572ZM12.5 7.85725C12.3028 7.85725 12.1429 8.01716 12.1429 8.21439C12.1429 8.41161 12.3028 8.57153 12.5 8.57153H18.2143C18.4115 8.57153 18.5714 8.41161 18.5714 8.21439C18.5714 8.01716 18.4115 7.85725 18.2143 7.85725H12.5ZM10.7143 3.92871C10.7143 4.02341 10.7519 4.1143 10.8189 4.18126C10.8859 4.24822 10.9768 4.28585 11.0715 4.28585H15.3571C15.5544 4.28585 15.7143 4.12593 15.7143 3.92871C15.7143 3.73149 15.5544 3.57157 15.3571 3.57157H11.0715C10.8742 3.57157 10.7143 3.73149 10.7143 3.92871ZM10.7143 6.07155C10.7143 6.16625 10.7519 6.25713 10.8189 6.3241C10.8859 6.39106 10.9768 6.42869 11.0715 6.42869H13.2143C13.4115 6.42869 13.5714 6.26877 13.5714 6.07155C13.5714 5.87432 13.4115 5.71441 13.2143 5.71441H11.0715C10.8742 5.71441 10.7143 5.87432 10.7143 6.07155Z" fill="#94959F"/>
</svg>
