<svg width="14" height="13" viewBox="0 0 14 13" fill="none" xmlns="http://www.w3.org/2000/svg">
<path d="M10.3293 -0.00629819C10.2248 -0.00442317 10.1253 0.0381659 10.0519 0.112452L8.80106 1.36246L12.0269 4.58898L13.2793 3.33657C13.3538 3.26166 13.3956 3.16023 13.3956 3.0546C13.3956 2.94889 13.3538 2.84746 13.2793 2.77255L10.6183 0.112429C10.542 0.0352858 10.4377 -0.00757133 10.3292 -0.00632105L10.3293 -0.00629819ZM8.23547 1.92808L2.07936 8.08443C2.00569 8.15925 1.96445 8.25997 1.96445 8.36489L1.95275 11.0376C1.9523 11.1442 1.99453 11.2466 2.06989 11.3219C2.14534 11.3974 2.24766 11.4395 2.35435 11.4392L5.02612 11.4274H5.02603C5.13148 11.4265 5.23228 11.3841 5.30655 11.3094L11.462 5.15392L8.23547 1.92808ZM0.995699 12.0063C0.854895 12.0094 0.726145 12.0864 0.656591 12.2088C0.587126 12.3313 0.587126 12.4813 0.656591 12.6038C0.726145 12.7263 0.854895 12.8031 0.995699 12.8063H11.6435C11.7843 12.8031 11.913 12.7263 11.9826 12.6038C12.052 12.4813 12.052 12.3313 11.9826 12.2088C11.913 12.0864 11.7843 12.0094 11.6435 12.0063H0.995699Z" fill="url(#paint0_linear_265_6025)"/>
<defs>
<linearGradient id="paint0_linear_265_6025" x1="7.00002" y1="-0.00634766" x2="7.00002" y2="12.8063" gradientUnits="userSpaceOnUse">
<stop stop-color="#F93A7A"/>
<stop offset="1" stop-color="#FF9320"/>
</linearGradient>
</defs>
</svg>
