<svg width="22" height="20" viewBox="0 0 22 20" fill="none" xmlns="http://www.w3.org/2000/svg">
<path fill-rule="evenodd" clip-rule="evenodd" d="M20.7542 7.50765L17.4024 10.7787C16.9734 11.2078 16.33 11.2078 15.9009 10.8055C15.4988 10.4034 15.5523 9.73303 15.9277 9.33068L17.4292 7.88283L11.5838 7.88302C11.2888 7.88302 10.9939 7.77584 10.8063 7.56131C10.3237 7.0518 10.4576 6.16694 11.0745 5.84522C11.2353 5.7648 11.4231 5.71112 11.584 5.71112H17.4294L15.9279 4.26326C15.5257 3.88788 15.4721 3.19081 15.9011 2.81541C16.3033 2.41328 16.9736 2.44003 17.4027 2.84216L20.7544 6.08673C21.1833 6.48867 21.1833 7.10532 20.7542 7.50767L20.7542 7.50765Z" fill="#808191"/>
<path fill-rule="evenodd" clip-rule="evenodd" d="M12.7098 2.49357C12.7098 2.19861 12.4953 1.98406 12.2003 1.98406H3.96849L8.58047 4.29005C8.90218 4.4509 9.14366 4.79956 9.14366 5.17491V13.6749H12.1737C12.4686 13.6749 12.6832 13.4604 12.6832 13.1654L12.683 9.19698H14.7477V14.667C14.7477 15.2302 14.2919 15.6591 13.7287 15.6591L9.14347 15.6593V19.4935C9.14347 19.8689 8.74134 20.1102 8.39268 19.9494L0.536229 16.0346C0.21452 15.8738 0 15.5251 0 15.1498V0.992064C0 0.428878 0.455812 0 1.01897 0H13.7287C14.2919 0 14.7477 0.455811 14.7477 0.992064V4.47772H12.683L12.6828 2.49359L12.7098 2.49357Z" fill="#808191"/>
</svg>
