<svg width="20" height="20" viewBox="0 0 20 20" fill="none" xmlns="http://www.w3.org/2000/svg">
<path fill-rule="evenodd" clip-rule="evenodd" d="M9.99981 0C12.3225 0 14.1935 1.73133 14.1935 3.88074C14.1935 6.03014 12.3226 7.76147 9.99981 7.76147C7.67704 7.76147 5.80608 6.03014 5.80608 3.88074C5.80608 1.73133 7.67704 0 9.99981 0ZM18.9677 9.13433C15.9355 9.07462 13.1611 9.61202 10.7096 10.8657V20C12.645 18.0896 15.5486 17.3732 18.9677 17.3134V16.2388C18.3872 16.2388 17.8064 16 17.4193 15.5821C17.0321 15.2239 16.7742 14.7463 16.7742 14.1492V12.6566C16.7742 12.0596 17.0323 11.582 17.4193 11.2237C17.8064 10.8057 18.387 10.6267 18.9677 10.6267V9.13412V9.13433ZM1.03226 9.13433C4.06452 9.07462 6.83888 9.61202 9.29043 10.8657V20C7.35497 18.0896 4.45139 17.3732 1.03226 17.3134V16.2388C1.61285 16.2388 2.19358 16 2.58073 15.5821C2.96788 15.2239 3.22585 14.7463 3.22585 14.1492V12.6566C3.22585 12.0596 2.96774 11.582 2.58073 11.2237C2.19358 10.8057 1.613 10.6267 1.03226 10.6267V9.13412V9.13433ZM1.03226 11.7015C1.61285 11.7015 2.06452 12.1194 2.06452 12.6567V14.1493C2.06452 14.6865 1.61285 15.1045 1.03226 15.1045C0.451677 15.1045 0 14.6865 0 14.1493V12.6567C0 12.1194 0.451677 11.7015 1.03226 11.7015ZM18.9677 11.7015C18.3872 11.7015 17.9355 12.1194 17.9355 12.6567V14.1493C17.9355 14.6865 18.3872 15.1045 18.9677 15.1045C19.5483 15.1045 20 14.6865 20 14.1493V12.6567C20 12.1194 19.5483 11.7015 18.9677 11.7015ZM13.742 8.59694C12.3871 8.89549 11.2258 9.31334 9.99992 9.97012C8.77407 9.31344 7.61275 8.89548 6.25787 8.59694C8.38692 7.88054 11.6129 7.88054 13.7418 8.59694H13.742Z" fill="#94959F"/>
</svg>
